<?xml version="1.0" encoding="utf-8"?>
<!-- Generator: Adobe Illustrator 19.2.1, SVG Export Plug-In . SVG Version: 6.00 Build 0)  -->
<svg version="1.1" id="Plan_1" xmlns="http://www.w3.org/2000/svg" xmlns:xlink="http://www.w3.org/1999/xlink" x="0px" y="0px"
	 viewBox="0 0 192.9 170.4" style="enable-background:new 0 0 192.9 170.4;" xml:space="preserve">
<style type="text/css">
	.st0{fill:#FF0000;}
	.st1{fill:#FFD900;}
</style>
<path class="st0" d="M36.1,121.9c0,0,0.1-0.1,0.1-0.1c0.5-0.1,1.1,0,1.7,0.1c0.6,0.2,1.1,0.7,1.6,1.2c0.6,0.3,1.2,0.4,1.8,0.5
	c0.6,0.2,1.2,0.4,1.8,0.6c0.1,0.1-1.2,0.1-2.5,0c-0.7,0-1.3-0.1-2-0.1c-0.9,0-1.8-0.1-2.6-0.1v29.9c0.1,0,0.1,0,0.2,0
	c1-0.2,1.9-0.4,2.9-0.6c0.7-0.2,1.3-0.4,1.5-0.2c-0.3,0.5-0.7,1.1-0.9,1.6c-0.1,0.8-0.1,1.7-0.4,2.4c-0.5,0.8-1,1.5-0.9,2
	c1,0.4,1.9,0.8,3,1c1,0,2.1,0.1,3.1,0.1c0.8,0.1,1.6,0.3,2.3,0.1c0.6-0.5,1.2-1.1,1.4-0.8c0,0.2,0.1,0.4,0.1,0.6
	c-0.1,0.6-0.2,1.1,0,1.4c0.6,0,1.2,0,1.8-0.1c0.6,0,1.2-0.1,1.8-0.2c0.8-0.5,1.6-1,1.8-0.8c0,0.5-0.1,0.9,0,1.4c0,0.8,0,1.6,0.4,1.9
	c0.9-0.1,1.9-0.2,2.7-0.5c0.6-0.4,1.3-0.7,1.9-1c0.7-0.4,1.4-0.9,2.2-1c0.4-0.1,0.8-0.3,1.1-0.1c0.2,0.3,0.4,0.6,0.5,1
	c0,0.1,0.1,0.3,0.1,0.4c-0.1,0.5-0.1,0.9-0.2,1.4c-0.1,0.9-0.2,1.8-0.1,2.6c0.3,0.9,0.6,1.8,0.9,2.6c0.1,0.8,0.2,1.5,0.6,1.4
	c0.4-0.1,0.7-0.2,1.1-0.2c0.6-0.4,1.2-0.7,1.8-1.4c0.5-0.5,1-1,1.5-1.2c0.9-0.5,1.8-1.1,2.6-1.9c0.9-1.2,1.7-2.3,2.8-2.2
	c0.4,0.2,0.9,0.3,1.3,0.6c0.8,0.4,1.5,0.7,2,0.5c0.3-0.5,0.5-0.9,0.9-1.3c0.4-0.3,0.8-0.7,1.1-1.1c0.3-0.9,0.6-1.7,0.9-1.8
	c0.3,0.6,0.6,1.2,1,1.7c0.5,0.4,1,0.8,1.6,0.9c0.5,0,1,0.1,1.4-0.1c0.3-0.4,0.7-0.8,1-1.2c0.3-0.5,0.7-1.1,1-1.6
	c0.3-0.6,0.6-1.1,0.9-1.8c0-0.7,0-1.4,0.5-1.5c0.2,0,0.4,0.1,0.5,0c0.3-0.3,0.6-0.5,0.7-0.8c-0.1-0.9-0.3-1.7-0.1-1.7
	c0.3,0.5,0.6,0.9,1.1,1.3c0.5,0.4,1,0.5,1.6,0.7c0.3-0.2,0.3-0.9,0.3-1.6c0.1-0.8,0.1-1.5,0.1-2.3c-0.1-1-0.4-2-0.7-3
	c-0.2-1-0.5-2-0.7-3c-0.2-0.8-0.5-1.6-0.8-2.3c-0.3-1-0.5-2.1-0.7-3.2c-0.2-1-0.4-2.1-0.6-3.2c0-1.1,0.3-2.3,0.6-3.4
	c0.4-1.2,1.2-2.4,1.9-3.5c0.7-1,1.7-1.7,2.7-2.5c0.7-0.5,1.5-0.9,2.2-1.3c0.5-0.3,1-0.7,1.5-1c0.5,0,1,0.7,1.5,1.4
	c0.4,0.5,0.8,1.1,1.2,1.7c1,1.1,2.5,1.5,4,2c1.5,0.8,2.9,1.7,4.3,2.6c1.3,1.1,2.5,2.4,3.6,3.8c0.8,1,1.4,2.2,2.1,3.3
	c1.1,2,1.7,4.3,2.4,6.5c0.6,1.3,1.3,2.6,2.1,3.9c0.5,1.2,0.7,2.4,1,3.7c0.5,1,1.2,2,1.8,2.9c0.7,1,1.4,2,2.1,2.9
	c0.7,0.5,1.6,0.8,2.4,1c0.2-0.2,0.1-0.7,0.1-1.2c0-0.6-0.2-1.2-0.4-1.8c0.1-0.4,1,1.1,2,2.5c0.6,0.6,1.2,1.1,1.9,1.6
	c0.7,0.4,1.5,0.5,2.3,0.6c0.3,0,0.6,0,1,0c0.3-0.2,0.4-0.6,0.6-1.1c0.2-0.6,0.3-1.3,0.3-2c0.3,0,0.7,0.5,1.2,1.1
	c0.7,0.5,1.4,1,2.1,1.4c0.7,0.4,1.3,0.8,2,1.2c1.1,0,0.7-1.6,1.3-1.7c0.3-0.2,0.9,0.6,1.5,1.3c0.5,0.2,1.1,0.2,1.6,0.2
	c0.5-0.1,0.9-0.6,1.3-1.1c0.8-0.3,1.8,0.7,2.7,1.7c0.8,0.4,1.6,0.7,2.4,1c0.7,0.2,1.3,0.4,2,0.5c0.5-0.1,1-0.4,1.5-0.7
	c0.5-0.5,0.3-1.6,0.1-2.6c-0.1-1.1-0.3-2.1-0.6-3.2c-0.3-1.2-2-2.5-1.5-3.7c1.2,0.7,1.7,0.9,2.3,1c0.6,0,1.2,0,1.8,0.1
	c0.5,0.1,0.9,0.2,1.1,0.1c0.1-0.4,0.2-0.8,0.2-1.3c-0.1-0.8-0.2-1.7,0-1.8c0.3,0.4,0.7,0.8,1.1,1c0.3,0.2,0.6,0.3,1,0.4
	c0.5,0.1,1,0.2,1.4,0.1c0.4-0.2,0.9-0.4,1.2-0.7c0.1-0.6,0.2-1.2,0.6-1.4c0.5,0.1,0.9,0.2,1.4,0.3c0.9,0.2,1.7,0.5,2.6,0.6
	c1.1-0.1,2.2-0.1,3.3-0.4c0.9-0.1,1.9-0.3,2.6-0.6c0.6-0.4,1.3-0.7,1.3-1.3c-0.2-0.4-0.4-0.8-0.6-1.2c-0.3-0.5-0.6-1-0.8-1.5
	c-0.3-0.5-0.6-0.9-0.8-1.3c-0.1-0.5-0.2-0.9-0.4-1.4c-0.2-0.2-0.4-0.5-0.4-0.6c0.5-0.1,1.1-0.2,1.6-0.4c0.7-0.1,1.5-0.2,2.2-0.3
	c0.7-0.1,1.4-0.1,1.6-0.6c0-0.2,0-0.4,0-0.5c-0.3-0.4-0.6-0.8-0.8-1.2c-0.4-0.4-0.8-0.8-0.7-1c0.4,0,0.8,0.1,1.2,0.1
	c0.3,0,0.5,0,0.7-0.2c0-0.3,0.1-0.7,0.3-0.8c0.4,0,0.8,0,1.1-0.2c0.4-0.2,0.7-0.4,1.1-0.4c0.6-0.1,1.3-0.2,1.9-0.6
	c0.4-0.2,0.7-0.5,1.1-0.7c0.2-0.2,0.3-0.3,0.5-0.5c0.5-0.1,1-0.2,1.2-0.4c0-0.3,0.1-0.6,0.1-1c0.1-0.5,0.2-1,0.1-1.4
	c0-0.3,0-0.6-0.1-0.8c-0.2-0.1-0.4-0.1-0.6-0.1c-0.7-0.5-1.5-1.1-2.1-1.7c-0.6-0.3-1.2-0.7-1-0.8c0.2-0.1,0.4-0.1,0.5-0.3
	c0.3-0.4,0.6-0.8,1-1c1-0.2,2-0.4,2.6-1.1c0.4-0.6,0.7-1.3,0.9-1.9c0.2-0.6,0.3-1.1,0.4-1.7c0.2-0.6,0.4-1.2,0-1.3
	c-0.2,0-0.4,0-0.5-0.2c-0.3-0.1-0.6-0.2-0.7-0.2c0.5-0.1,1-0.3,1.2-0.7c0.1-0.2,0.1-0.3,0.2-0.4c0-0.3,0.1-0.6,0.1-1
	c0-0.4,0-0.8,0-1.2c0.1-0.4,0.3-0.8,0.4-1.3c0.1-0.8,0.2-1.6,0.2-2.4c0.1-0.7,0.3-1.4-0.1-1.7c-0.1-0.1-0.3-0.1-0.4-0.2
	c-1.3,0-2.5-0.1-3.8-0.1c-0.8,0.1-1.6,0.1-2.4-0.1c-0.6-0.3-1.2-0.6-1.8-0.7c-1.3-0.1-2.6-0.1-3.9-0.1c-1.7,0-3.5-0.1-5.2,0.2
	c-1.3,0.3-2.6,0.5-3.9,0.9c-1,0.4-2,0.9-3,1.3c-0.9,0.5-1.8,1-2.8,1.4c-0.7,0.2-1.3,0.4-1.9,0c-0.7-0.3-1.4-0.7-2.1-0.9
	c-0.6-0.4-1.2-0.7-1.5-1.5c-0.1-0.6-0.1-1.2,0-1.6c0.4-1.3,0.7-2.6,1.7-3.5c0.6-1.4,2.3-0.6,3.6-1.6c0.5-0.3,1.2-0.2,1.8-0.1
	c0.9,0,1.8,0.1,2.7-0.5c0.5-0.2,1-0.4,1.5-0.5c1.6,0.2,2.8-0.7,4.4,0.5c1,0.4,1.9,0,2.3-0.5c0.1-0.4,0.2-0.7,0.4-1
	c0.8,0,1.6,0.1,2.4,0.3c1.2,0.4,2.3,0.8,2.7,0.4c0.1-0.4,0.1-0.8,0.2-1.5c0-1.4,0-2.8,0.7-3.1c1-0.1,2.1-0.2,3.1-0.7
	c0.5-0.1,1-0.1,1.4-0.1c0.5-0.4,1.1-0.9,1.5-1.6c0.4-0.6,0.7-1.2,1.2-1.5c0.6-0.4,1.2-0.7,1.3-1.4c-0.4-0.5-0.8-0.9-0.7-1
	c0.3-0.2,0.6-0.3,0.9-0.8c0.6-0.4,1.2-0.7,1.5-1c0.2-0.4,0.5-0.8,0.6-1.6c0.1-0.4,0.1-0.8,0-0.9c-0.2-0.3-0.5-0.6-0.5-1.1
	c0.4-0.4,0.9-0.7,1.1-0.9c0-0.6,0-1.1,0.1-1.9c0-0.5,0-0.9,0.1-1.1c0.3-0.6,0.6-1.2,0.9-2c0.3-0.6,0.6-1.2,0.9-1.6
	c0.5-0.6,1-1.2,1.4-2c0.5-0.7,1.1-1.4,0.9-1.6c-0.8-0.2-1.6-0.4-2.3-0.9c-0.6-0.1-1.2-0.3-1.8-0.1c-0.5,0.1-0.9,0.2-1.2-0.1
	c-0.1-0.1-0.2-0.3-0.3-0.4c-0.4,0.1-0.8,0.2-1.1,0.2c-0.5-0.1-0.9-0.1-1.1-0.4c0-0.6,0-1.2,0.1-1.7c0.2-0.6,0.4-1.2,0.4-1.8
	c0-0.5,0.1-1-0.1-1.2c-0.4-0.1-0.9-0.3-1.3-0.4c-0.7,0-1.3-0.1-1.3-0.2c0.2-0.2,0.5-0.4,0.7-0.6c0.6-0.2,1.1-0.3,1.5-0.6
	c0.3-0.3,0.6-0.6,0.6-1c0-0.4,0.1-0.8-0.1-1c-0.3-0.2-0.6-0.3-0.8-0.6c-0.1-0.3-0.2-0.6-0.2-0.9c0.2-0.5,0.3-1,0.4-1.5
	c0-0.6,0.1-1.3,0.1-1.9c0-0.5,0.1-1,0-1.5c-0.1-0.5-0.2-1.1-0.6-1.2c-0.3,0-0.6,0-0.9,0c-0.4,0-0.8,0-1.2-0.1
	c-0.5-0.1-1-0.2-1.5-0.2c-0.5,0-0.9,0-1.4,0c-0.3,0-0.6,0-0.7-0.1c0.2-0.3,0.4-0.6,0.6-0.9c0.1-0.4,0.2-0.8,0.3-1.2
	c0.1-0.4,0.3-0.8,0.2-1.2c-0.1-0.2-0.1-0.4-0.2-0.5c-0.3-0.2-0.7-0.5-1-0.6c-0.6-0.1-1.1-0.1-1.2-0.4c0.2-0.3,0.3-0.6,0.4-0.9
	c0-0.4,0-0.8,0-1.2c0.2-0.6,0.3-1.2,0.4-1.8c0.1-0.5,0.1-0.9,0-1.3c-0.3-0.4-0.5-0.8-0.8-1.2c-0.1-0.4-0.3-0.7-0.5-0.9
	c-0.4,0-0.8-0.1-1.2,0c-0.4,0.1-0.9,0.2-1.3,0.2c-0.5-0.1-1.1-0.2-1.6,0c-0.4,0.2-0.7,0.4-1.2,0.5c-0.5,0.1-1,0.2-1.1,0
	c0-0.2,0-0.4,0-0.6c0-0.3,0-0.6-0.1-0.9c-0.1-0.4-0.2-0.9-0.2-1.3c0-0.4,0-0.8,0-1.1c0-0.8,0.1-1.5,0-2.3c-0.1-0.5-0.2-1-0.4-1.4
	c-0.1-0.5-0.1-1-0.4-1.1c-0.2,0.1-0.4,0.1-0.5,0.2c-0.5,0.1-1.1,0.2-1.6,0.2c-0.5,0.1-1.1,0.2-1.3,0c-0.1-0.4-0.1-0.8-0.1-1.1
	c0-0.3,0-0.6,0-0.9c-0.1-0.6-0.2-1.2-0.5-1.7c-0.1-0.4-0.3-0.8-0.6-1c-0.3,0-0.6-0.1-0.9-0.2c-0.2-0.1-0.5-0.3-0.7-0.4
	c-0.3-0.3-0.5-0.6-0.7-1c-0.1-0.4-0.1-0.8-0.3-1.2c-0.4-0.4-0.8-0.8-1.1-1.3c-0.2-0.4-0.3-0.8-0.5-1.2c-0.3-0.5-0.6-1.1-0.7-1.7
	c0-0.3,0-0.6-0.1-0.9c-0.1-0.5-0.3-1-0.5-1.4c-0.3-0.6-0.6-1.1-0.8-1.7c-0.1-0.6-0.2-1.2-0.4-1.4c-0.6,0.4-1.3,0.9-1.8,1.4
	c-0.4,0.6-0.8,1.2-1.1,1.8c-0.1,0.8-0.3,1.6-0.7,2.3c-0.5,0.4-1.1,0.8-1.4,1.4c-0.2,0.3-0.4,0.6-0.6,0.9c-0.4,0.5-0.7,0.9-1.1,1.4
	c-0.4,0.6-0.7,1.1-1.1,1.1c-0.3-0.4-0.6-0.8-0.9-1.1c-0.3-0.2-0.5-0.5-0.9-0.6c-0.5-0.2-1-0.5-1.3-0.3c-0.2,0.4-0.3,0.8-0.5,1.2
	c-0.1,0.6-0.2,1.2-0.3,1.7c0,0.8,0,1.6-0.1,1.7c-0.3-0.5-0.6-1.1-1-1.5c-0.2-0.2-0.5-0.5-0.8-0.6c-0.4-0.3-0.7-0.5-1-0.5
	c-0.3,0.4-0.5,0.8-0.6,1.3c-0.1,0.6-0.1,1.2-0.1,1.8c0,0.7,0,1.5-0.1,2.2c-0.1,0.8-0.2,1.6-0.2,2.4c0.1,1,0.2,2-0.1,2.8
	c-0.3,0.5-0.5,0.9-0.8,1.4c-0.4,0.4-0.8,0.9-1.2,1.4c-0.6,0.8-1.2,1.7-1.6,2.6c-0.2,0.7-0.4,1.5-0.8,2.2c-0.3,0.5-0.6,0.9-0.9,1.4
	c-0.4,0.5-0.8,0.9-1.1,1.5c-0.2,0.5-0.4,1-0.7,1.5c-0.1,0.3-0.3,0.6-0.5,0.5c-0.2-0.1-0.4-0.2-0.5-0.3c0.1-0.4,0.2-0.7,0.3-1.1
	c0.3-0.5,0.6-1.1,1-1.5c0.5-0.5,0.9-1,1.3-1.6c0.3-0.4,0.5-0.8,0.6-1.2c0-0.4,0-0.8,0-1.3c0.1-0.6,0.1-1.2-0.1-1.5
	c-0.4,0-0.8-0.1-1.1-0.1c-0.6,0-1.3,0-1.9,0.1c-0.7,0.1-1.5,0.2-1.7,0c0.4-0.6,0.9-1.1,1.2-1.7c0.2-0.5,0.5-1,0.6-1.5
	c0.3-1.2,0.6-2.3,0-2.6c-0.5,0-0.9,0-1.4,0c-0.7,0-1.3,0-1.5-0.3c0.1-0.4,0.2-0.7,0.2-1.1c0.2-0.7,0.4-1.3,0-1.7
	c-0.3-0.1-0.6-0.2-0.7-0.4c0-0.3,0-0.6-0.1-1c0.1-0.5,0.2-1.1-0.1-1.3c-0.2,0-0.5-0.1-0.6-0.2c-0.1-0.3-0.3-0.6-0.2-0.9
	c0.4-0.4,0.8-0.8,0.8-1.3c0-0.3,0-0.7-0.1-1c-0.1-0.2-0.3-0.4-0.3-0.6c0-0.5,0.1-0.9-0.1-1.1c-0.4,0.3-0.8,0.6-1.2,0.8
	c-0.5,0.2-1.1,0.3-1.6,0.4c-0.4,0-0.9,0-1.3,0c-0.4-0.1-0.8-0.1-1.2,0c-0.4,0.1-0.8,0.2-1.1,0.5c-0.1,0.3-0.2,0.7-0.5,0.8
	c-0.2,0-0.4,0-0.6,0c-0.3,0-0.6,0-0.9,0.1c-0.2,0.2-0.4,0.4-0.6,0.5c-0.3,0.1-0.5,0.2-0.8,0.2c-0.3-0.2-0.6-0.3-1-0.5
	c-0.3-0.2-0.6-0.4-0.9-0.4c-0.3,0.1-0.5,0.1-0.7,0.2c-0.3,0.5-0.7,0.9-0.7,0.9c0.2-0.5,0.4-0.9,0.5-1.4c0-0.4,0-0.7,0-1.1
	c0.1-0.4,0.2-0.7,0.1-1.1c-0.1-0.1-0.3-0.3-0.3-0.4c0-0.2,0-0.3,0-0.4c-0.1-0.2-0.2-0.3-0.3-0.4c-0.2-0.1-0.4-0.1-0.6-0.2
	c-0.2-0.1-0.5-0.2-0.6-0.4c0-0.3,0-0.6,0-0.9c0-0.4-0.1-0.8,0-1.2c0.1-0.2,0.2-0.4,0.3-0.6c0-0.3,0-0.6,0-1c0-0.4,0-0.9,0.1-1.3
	c0.1-0.3,0.3-0.6,0.4-0.9c0.1-0.4,0.2-0.8,0.3-1.1c0.2-0.4,0.4-0.8,0.5-1.2c0-0.3,0.1-0.6,0-0.9c-0.1-0.3-0.2-0.6-0.4-0.7
	c-0.2,0-0.3,0-0.5,0c-0.5,0.1-1,0.2-1.5,0.3c-0.6,0.1-1.2,0.3-1.8,0.3c-0.4,0-0.9,0.1-1.1-0.1c-0.1-0.4-0.3-0.8-0.3-1.2
	c0-0.3,0.1-0.7,0.1-1c0.1-0.3,0.2-0.7,0.1-1c-0.1-0.4-0.1-0.8-0.4-1c-0.2,0-0.5,0-0.7,0c-0.6,0.2-1.3,0.3-1.8,0
	c-0.2-0.2-0.4-0.3-0.5-0.5c-0.1-0.5-0.1-1-0.2-1.5c0-0.4-0.1-0.7-0.1-1.1c0-0.4,0-0.9-0.1-1.3c-0.1-0.4-0.1-0.7-0.3-1
	c-0.3-0.2-0.6-0.4-0.9-0.6c-0.2-0.1-0.4-0.2-0.6-0.2c-0.4,0-0.7-0.1-1,0.1c-0.2,0.3-0.4,0.5-0.6,0.6c-0.3,0-0.5-0.1-0.8-0.2
	c-0.4-0.2-0.7-0.4-0.9-0.7c-0.1-0.4-0.1-0.7-0.2-1.1c-0.1-0.4-0.2-0.8-0.3-1.2c-0.2-0.3-0.3-0.6-0.5-0.8c-0.2-0.2-0.3-0.4-0.5-0.5
	c-0.4,0.1-0.8,0.1-1.1,0c-0.2-0.1-0.4-0.2-0.5-0.4c-0.2-0.1-0.4-0.3-0.5-0.5c-0.3-0.3-0.5-0.6-0.7-1c-0.1-0.4-0.2-0.7-0.3-1.1
	c-0.3-0.4-0.6-0.8-0.8-1.2c0-0.4,0-0.7-0.1-1.1c-0.1-0.5-0.3-1-0.6-1.4c-0.2-0.2-0.4-0.5-0.6-0.6C96.2,0.1,95.9,0,95.5,0
	c-0.4,0-0.7,0-1.1,0.1c-0.4,0.3-0.7,0.6-1,1c-0.2,0.4-0.4,0.9-0.6,1.3c-0.1,0.4-0.3,0.8-0.6,1.1c-0.2,0.6-0.5,1.1-0.9,0.5
	c-0.4-0.1-0.7-0.2-1,0c-0.1,0.2-0.3,0.4-0.5,0.6c-0.1,0.2-0.2,0.4-0.4,0.4c-0.2,0-0.4-0.1-0.6,0c-0.2,0.1-0.4,0.3-0.5,0.4
	c0,0.3,0,0.7-0.1,0.9c-0.2,0.1-0.5,0.3-0.7,0.3c-0.3,0-0.6,0-0.9,0.1c-0.2,0.1-0.4,0.3-0.6,0.4c-0.3,0.3-0.7,0.5-1,0.8
	c-0.3,0.3-0.6,0.5-0.9,0.8c-0.3,0.2-0.6,0.3-0.8,0.6c-0.1,0.3-0.1,0.5-0.3,0.6c-0.3-0.1-0.6-0.3-0.9-0.4c-0.3,0-0.7-0.1-1,0
	c-0.3,0.1-0.7,0.2-1,0.4c-0.2,0.1-0.4,0.3-0.5,0.4c-0.3,0.4-0.6,0.7-0.9,1.1c-0.3,0.6-0.7,1.2-0.9,1.9c0,0.4-0.1,0.8-0.3,0.9
	c-0.3-0.1-0.6-0.2-0.9-0.3c-0.4-0.1-0.7-0.2-1.1-0.3c-0.4-0.1-0.7-0.2-1-0.1c-0.4,0.1-0.8,0.2-1.2,0.4c-0.3,0.4-0.5,0.7-0.7,1.1
	c-0.1,0.4-0.2,0.8-0.4,1.1c-0.2,0.2-0.4,0.4-0.5,0.6c-0.2,0.4-0.3,0.8-0.6,1.2c-0.1,0.3-0.2,0.7-0.5,0.8c-0.3-0.1-0.5-0.1-0.8-0.2
	c-0.4-0.1-0.7-0.2-1.1-0.1c-0.2,0.2-0.5,0.5-0.7,0.7c-0.2,0.2-0.5,0.4-0.7,0.6c-0.3,0.3-0.6,0.6-0.8,0.9c-0.2,0.5-0.4,0.9-0.6,1.4
	c-0.2,0.6-0.4,1.2-0.5,1.7c0.2,0.6,0.3,1.2,0,1.3c-0.3,0-0.5,0-0.8,0c-0.3,0-0.6,0-1,0c-0.4,0-0.8,0-1.1,0.1
	c-0.3,0.2-0.6,0.4-0.7,0.7c0,0.5-0.1,1-0.1,1.5c0,0.4,0,0.8,0,1.1c0,0.5-0.1,1,0,1.4c0.1,0.3,0.3,0.6,0.2,0.7
	c-0.4-0.2-0.8-0.4-1.2-0.6c-0.3-0.2-0.6-0.3-1-0.5c-0.3-0.1-0.5-0.2-0.8-0.3c-0.3-0.1-0.7-0.2-1-0.3c-0.4,0-0.8,0-1.2,0
	c-0.5,0-1,0-1.5,0c-0.4-0.1-0.8-0.2-1.1,0c-0.2,0.1-0.3,0.3-0.5,0.4c0,0.4-0.1,0.8-0.1,1.1c-0.2,0.7-0.3,1.3-0.4,2
	c-0.1,0.5-0.2,1.1-0.1,1.6c0.1,0.5,0.3,1.1,0.3,1.6c0,0.3,0,0.6,0,0.9c0,0.4-0.1,0.9,0,1.3c0.2,0.5,0.4,0.9,0.2,1.2
	c-0.2,0.1-0.4,0.2-0.5,0.2c-0.4,0.1-0.8,0.2-1,0.5c-0.1,0.4-0.2,0.8-0.2,1.1c0.2,0.6,0.5,1.1,0.8,1.6c0.3,0.4,0.7,0.8,1,1.2
	c0.4,0.4,0.9,0.8,1.1,1.3c0.1,0.5,0.2,1.1,0.3,1.6c0.1,0.2,0.2,0.4,0.2,0.5c-0.4,0-0.8,0-1.2,0c-0.6,0-1.1,0-1.7,0
	c-0.8-0.1-1.6-0.2-2.4-0.3c-0.8-0.2-1.6-0.4-2.4-0.7c-0.9-0.3-1.8-0.7-2.7-1c-0.9-0.2-1.7-0.4-2.9-0.7c-1.1-0.5-2.4-1.3-2.9-0.9
	c-0.1,0.8-0.2,1.7-0.2,2.5c0,0.9,0,1.8-0.1,2.7c0.4,1.6,0.8,3.2-0.1,3.6c-0.3,0.1-0.7,0.1-1,0.1c-0.5-0.1-0.9-0.1-1.2,0
	c0,0.9-0.1,1.8,0.1,2.7c0.5,0.8,0.9,1.5,0.6,2.1c-0.2,0.2-0.5,0.4-0.7,0.7c-0.3,0.3-0.7,0.6-0.9,0.9v2.6c0.3,0.5,0.6,0.9,0.7,1.4
	c0.1,0.7,0.2,1.4,0,1.5c-0.2-0.2-0.5-0.3-0.7-0.5V121.9z M29,124c0.8-0.2,1.6-0.4,2.4-0.5c1-0.2,2.1-0.5,3.1-0.7
	c0.6-0.2,1.1-0.5,1.6-0.8V63.8c-0.2-0.1-0.3-0.2-0.5-0.4c-0.6-0.7-1.1-1.3-1.8-1.8c-0.9-0.5-1.8-1-2.4-0.7c-0.3,0.9-0.6,1.8-0.9,1.8
	c-0.4-0.6-0.7-1.2-1.1-1.7c-0.6-0.6-1.3-1.3-2-1.8c-1-0.5-2-0.9-3-1.3c-1.4-0.8-2.9-1.5-3.6-0.8c-0.2,0.4-0.4,0.8-0.5,1.2
	c0.1,1.1,0.3,2.3-0.2,2.4c-0.5-0.2-0.9-0.3-1.3-0.6c-0.7-0.4-1.5-0.8-2.2-1.2c-0.6-0.6-1.2-1.3-1.7-1.1c-0.3,0.3-0.6,0.6-0.7,1
	c0.1,0.6,0.1,1.2,0,1.5c-1-0.3-1.9-0.7-2.9-1.1c-0.8-0.4-1.5-0.8-2.4-1.1c-1-0.3-2-0.6-3-0.8c-1.3-0.5-2.6-0.9-3.1-0.3
	c-0.1,0.5-0.2,0.9-0.2,1.4C2.8,59.8,3,61,3.5,62.2c0.5,0.8,1,1.7,1.5,2.6c0.6,1,1.1,1.9,1.1,2.9c-0.2,0.6-0.3,1.1-0.4,1.7
	c0,1,0.1,1.9-0.1,2.9c-0.1,0.6-0.1,1.2-0.4,1.7c-0.4,0.4-0.8,0.7-1.1,1.2c-0.2,1.1-0.4,2.1,0.1,2.9c0.4,0.3,0.9,0.6,1.2,1.1
	c0.4,0.6,0.7,1.1,0.6,1.5c-0.6,0.3-1.2,0.6-1.7,1c-0.8,0.4-1.6,0.9-1.9,1.5c0.4,1.3,0.8,2.5,1.4,3.6c0.8,0.9,1.5,1.7,2.3,2.6
	C7,90,7.8,90.7,7.8,91.2c-0.9,0.5-1.9,1-2.8,1.6c-0.8,0.7-1.7,1.4-2.6,2C1.2,95,0.1,95.2,0,95.7v0.2c0,0,0,0,0,0
	c0.2,0.3,0.4,0.6,0.6,0.9c0.6,0.7,1.2,1.5,2,2.1c0.6,0.3,1.2,0.5,1.3,0.9c-0.7,0.7-1.4,1.4-1.2,1.7c0.6,0.1,1.2,0.1,1.9,0.2
	c1-0.1,2.1-0.1,2,0.2c-0.2,0.3-0.5,0.6-0.7,0.8c-0.7,0.4-1.4,0.7-1.6,1.3c0,0.4,0,0.9,0.1,1.2c0.6,0.4,1.2,0.8,1.8,1.2
	c0.7,0.5,1.3,1,2,1.6c-1.3,0.8-2.5,1.5-3.4,2.4c-0.8,1-1.6,1.9-2.3,2.9c-0.6,0.6-1.2,1.3-1.5,1.9c0.5,0.7,1,1.4,2,2
	c0.8,0.5,1.7,1.1,2.5,1.6c1.2,0.3,2.4,0.6,2.7,1.4c0,0.4,0,0.8,0,1.2c-0.1,0.4-0.1,0.8,0,1.1c0.9,0.1,1.8,0.3,2.7,0.3
	c0.6-0.1,1.2-0.2,1.4,0c0,0.4,0,0.7,0,1.1c-0.3,0.7-0.6,1.4-0.3,1.6c0.3,0,0.6,0,1,0c0.6,0.1,1.2,0.1,1.8,0c0.7-0.2,1.5-0.4,2.2-0.6
	c0.7-0.2,1.4-0.4,2.1-0.5c0.8,0.1,1.6,0.3,2.4,0.3c0.8,0,1.5,0,1.6,0c-0.9,0.2-1.7,0.3-2.5,0.7c-0.4,0.4-0.9,0.8-1.4,1.1
	c-0.6,0.2-1.2,0.3-1.8,0.5c-0.6,0.2-1.2,0.4-1.8,0.5c-0.9-0.2-1.7-0.4-1.9,0.1c0,0.3,0,0.5,0,0.8c0.1,0.4,0.3,0.8,0.2,1.1
	c-0.6,0.3-1.2,0.7-1.8,1c-0.6,0.4-1.1,0.7-1.7,1c-0.8,0.5-1.6,0.9-2.4,1.4c-0.7,0.5-1.4,1-2.1,1.6c-0.7,0.6-1.3,1.2-1.8,1.9
	c-0.7,0.9-1.4,1.9-1.5,2.3c0.8,0,1.6,0.1,2.8,0.2c0.6,0.1,1.3,0.3,1.5,0.3c1,0,1.9,0,3.2,0.1c0.7,0,1.4,0.1,1.7,0.2
	c0.6,0.2,1.2,0.5,2.3,0.6c0.9-0.2,1.7-0.3,1.9,0.1c-0.1,0.5-0.2,0.9-0.3,1.4c-0.2,0.4-0.5,0.7-0.8,0.9c0.6,0.1,1.3,0.2,2.3,0.3
	c0.9-0.1,1.8-0.2,2,0.2c-0.2,0.6-0.4,1.3-0.6,1.9c-0.4,0.6-0.7,1.2-1,1.5c0.7,0.1,1.4,0.2,2.4,0.5c0.6,0.4,1.2,0.8,1.5,0.9
	c0.9-0.2,1.7-0.4,3-0.5c1.1-0.2,2.1-0.4,2,0.1c-0.1,0.2-0.3,0.4-0.4,0.7c-0.4,0.7-0.8,1.3-1,2c-0.2,0.9-0.5,1.8-0.4,2
	c0.5,0,0.9,0,1.7,0c1.2,0,2.5,0,3.3-0.2c0.8-0.2,1.6-0.4,2.9-0.6c1.2-0.5,2.4-1.1,2.6-0.5c0,0.3,0,0.6-0.2,1
	c-0.2,0.8-0.4,1.5-0.1,1.8c0.3,0,0.7,0,1.1,0V124c-0.1,0-0.2,0-0.3,0c-0.9,0-1.9,0-2.8,0c-0.6,0-1.2,0-1.8,0
	C30.4,124,29.7,124,29,124L29,124z M36.1,58.7v2.6c-0.1-0.1-0.2-0.2-0.2-0.3c-0.2-0.6-0.1-1.3,0.1-2C35.9,58.9,36,58.8,36.1,58.7z"
	/>
<path class="st1" d="M83.8,116.1c-0.1-0.2-0.1-0.4-0.2-0.7c0-0.3,0-0.7,0-1c0-0.3,0.1-0.6,0-0.8c-0.1-0.2-0.3-0.4-0.4-0.6
	c-0.1-0.2-0.2-0.3-0.3-0.4c-0.2-0.2-0.3-0.3-0.4-0.5c0-0.2,0.1-0.3,0.1-0.5c0.1-0.3,0.3-0.6,0.4-0.9c0.1-0.3,0.2-0.5,0.3-0.8
	c0.1-0.3,0.3-0.6,0.4-0.9c0-0.3,0-0.6,0.1-0.9c0.1-0.4,0.3-0.8,0.4-1.3c0.1-0.5,0.3-0.9,0.4-1.4c0-0.4,0.1-0.8,0.1-1.2
	c0-0.5,0-1-0.1-1.5c-0.1-0.3-0.2-0.6-0.2-0.9c0-0.4,0-0.8,0-1.3c0.1-0.4,0.2-0.7,0.1-1c-0.1-0.1-0.2-0.2-0.3-0.3
	c-0.1-0.3-0.2-0.6-0.2-0.9c0-0.3,0.1-0.5,0-0.7c-0.1-0.1-0.2-0.3-0.4-0.4c-0.3,0-0.5,0-0.7,0c-0.4-0.1-0.8-0.2-1.1-0.3
	c-0.3-0.1-0.6-0.2-0.9-0.2c-0.5-0.2-1-0.3-1.5-0.5c-0.6-0.2-1.2-0.5-1.8-0.7c-0.4-0.1-0.9-0.2-1.4-0.3c-0.5-0.1-1-0.2-1.5-0.2
	c-0.4,0-0.8,0-1.2,0.1c-0.4,0.1-0.7,0.2-1,0.4c-0.3,0.3-0.7,0.6-1,0.9c-0.4,0.5-0.8,1-1.1,1.6c-0.2,0.5-0.3,0.9-0.4,1.4
	c-0.1,0.6-0.2,1.2-0.2,1.9c0,0.4-0.1,0.9,0,1.3c0.2,0.5,0.4,1.1,0.7,1.6c0.2,0.4,0.4,0.9,0.8,1.2c0.3,0.3,0.6,0.5,1,0.7
	c0.3,0,0.5,0.1,0.6,0.2c0.1,0.2,0.1,0.4,0.2,0.6c0,0.2-0.1,0.5-0.1,0.7c0.1,0.3,0.2,0.5,0.4,0.8c0.2,0.2,0.4,0.3,0.6,0.5
	c0.3,0.2,0.6,0.4,0.8,0.6c0.2,0.2,0.4,0.3,0.6,0.5c0.2,0.2,0.3,0.4,0.5,0.7c0.3,0.4,0.6,0.8,0.8,1.3c0,0.4,0.1,0.9,0.1,1.3
	c0,0.3,0,0.6-0.1,1c0,0.2-0.1,0.4-0.1,0.6c-0.1,0.2-0.2,0.5-0.4,0.6c-0.2,0.1-0.3,0.1-0.5,0.2c-0.2,0-0.5,0-0.7,0
	c-0.3,0-0.5-0.1-0.7-0.2c-0.1-0.1-0.2-0.2-0.3-0.4c-0.1-0.2-0.3-0.3-0.4-0.5c-0.2-0.2-0.4-0.4-0.6-0.5c-0.2-0.2-0.5-0.4-0.7-0.6
	c-0.2-0.2-0.5-0.5-0.7-0.7c-0.1-0.2-0.2-0.3-0.3-0.5c-0.1-0.2-0.3-0.4-0.5-0.5c-0.3-0.2-0.5-0.4-0.8-0.6c-0.3-0.2-0.5-0.5-0.6-0.8
	c0-0.2,0-0.5,0-0.7c-0.1-0.3-0.2-0.6-0.3-0.9c0-0.4-0.1-0.7-0.2-1.1c-0.2-0.3-0.4-0.5-0.6-0.8c-0.2-0.3-0.5-0.6-0.5-1
	c0-0.2,0.1-0.5,0-0.7c-0.1-0.3-0.3-0.6-0.5-0.9c-0.2-0.3-0.4-0.7-0.6-1c-0.2-0.4-0.3-0.7-0.6-0.9c-0.2-0.1-0.4-0.2-0.6-0.3
	c-0.3-0.1-0.6-0.1-0.8-0.1c-0.3,0-0.5,0-0.7,0.2c-0.2,0.2-0.5,0.4-0.6,0.6c0,0.4-0.1,0.8-0.1,1.2c0,0.3,0,0.7,0,1
	c0.1,0.3,0.2,0.6,0.3,0.8c0.2,0.2,0.4,0.4,0.5,0.7c0,0.2,0,0.5,0,0.7c-0.1,0.2-0.2,0.5-0.2,0.7c0,0.2-0.1,0.5,0,0.7
	c0.1,0.2,0.1,0.5,0.2,0.7c0.1,0.4,0.2,0.7,0.2,1.1c0,0.3,0,0.5-0.1,0.7c0,0.2-0.1,0.5-0.2,0.6c-0.3,0-0.7,0-1,0
	c-0.3-0.1-0.7-0.2-1-0.4c-0.3-0.2-0.6-0.3-0.8-0.6c-0.1-0.3-0.2-0.7-0.3-1c-0.1-0.3-0.3-0.6-0.4-1c-0.1-0.3-0.2-0.6-0.3-0.9
	c-0.2-0.2-0.4-0.5-0.4-0.7c0-0.2,0-0.4,0-0.7c0-0.3,0-0.5-0.1-0.7c0-0.3,0-0.7-0.1-1c-0.1-0.3-0.2-0.6-0.4-0.8
	c-0.2-0.2-0.4-0.4-0.6-0.6c0-0.2-0.1-0.4-0.1-0.5c0-0.2,0-0.5,0-0.7c0-0.1,0-0.2,0-0.4c-0.1-0.2-0.1-0.3-0.2-0.5
	c-0.1-0.2-0.2-0.3-0.3-0.5c-0.1-0.3-0.2-0.6-0.3-1c-0.1-0.3-0.1-0.5-0.1-0.8c0-0.2,0-0.3,0.1-0.5c0.1-0.2,0.2-0.4,0.3-0.6
	c0.1-0.3,0.2-0.5,0.2-0.8c0.1-0.3,0.2-0.7,0.3-1c0.1-0.2,0.1-0.4,0.2-0.6c0-0.4,0.1-0.8,0.1-1.2c0-0.3,0-0.5-0.1-0.8
	C58.1,93,58,92.8,58,92.7c-0.1-0.3-0.2-0.7-0.4-1c-0.5-0.5-0.9-1.2-1.2-1.6c-0.3-0.8-0.7-1.4-0.9-2.2c0-0.7-0.2-1.2-0.3-1.5
	c0.1-0.5,0.2-1,0.2-1.7c0.1-0.5,0.1-1,0.1-1.3c0.2-0.7-1.3-0.2-1.7-0.8c-0.5-0.5-0.9-1.1-1.2-2.1c-0.3-0.6-0.5-1.2-0.7-1.3
	c-0.2-0.6-0.5-1.2-0.3-2.4c0-0.7,0.2-1.9,0.8-2.6c1-1,0.6-1.5,1.5-1.9c0.3-0.1,0.9-0.3,1.5-0.4c0.9,0,1.8,0,2.6,0.2
	c0.6,0.3,1.2,0.6,1.8,0.7c0.6,0,1.1,0.5,1.8,0.3c0.7-0.3,1.5-0.4,2.3-0.3c0.9,0.2,1.7,0.4,2.6,0.5c0.6,0,1.1,0,1.7,0
	c0.8-0.1,1.6-0.1,2.2,0.1c0.9,0.2,1.8,0.5,2.7,0.7c1.1,0.1,2.2,0.1,3.1,0.3c1.9,0.3,3.5,0.5,5,0.2c1-0.2,2-0.7,2.7-1.4
	c0.4-0.6,0.9-1.2,1.2-1.9c0.3-0.8,0.6-1.5,0.7-2.3c0.2-0.9,0.4-1.9,0.5-2.5c0-0.7,0.2-1.1,0.4-1.6c0.2-0.9,0.3-1.7,0.4-2.6
	c0.2-1.1,0.4-2.1,0.9-3.1c0.3-0.7,0.6-1.4,0.9-2c0.2-0.5,0.5-1,0.8-1.4c0.3-0.3,0.6-0.7,0.6-1.1c0.1-0.5,0.1-1.1,0.3-1.6
	c0.1-0.4,0.2-0.8,0.1-1.1c0-0.5,0-0.9,0.1-1.4c0.1-0.3,0.1-0.7,0.2-1c0.2-0.4,0.5-0.8,0.8-1.2c0.3-0.4,0.6-0.8,1-1.1
	c0.3-0.4,0.6-0.9,1-0.9c0.2,0,0.4,0,0.6,0c0.2,0.1,0.4,0.2,0.5,0.4c0.1,0.2,0.2,0.4,0.3,0.6c0.1,0.2,0.1,0.4,0.1,0.6
	c0,0.2-0.1,0.4-0.1,0.7c-0.1,0.3-0.3,0.6-0.4,0.9c-0.2,0.4-0.4,0.9-0.5,1.3c0,0.3-0.1,0.6,0.1,0.8c0.1,0.1,0.3,0.3,0.5,0.4
	c0.2,0,0.5,0.1,0.7,0c0.2-0.2,0.5-0.5,0.7-0.7c0.4-0.5,0.8-0.9,1.1-1.4c0.3-0.5,0.6-1.1,1-1.5c0.4-0.5,0.9-1,1.4-1.2
	c0.4-0.2,0.8-0.4,1.2-0.4c0.2,0,0.5,0,0.7,0c0.3,0,0.7,0,0.9,0.2c0.2,0.3,0.3,0.6,0.3,0.8c-0.1,0.3-0.3,0.6-0.5,0.8
	c-0.1,0.2-0.3,0.4-0.4,0.6c-0.1,0.3-0.2,0.6-0.3,0.9c-0.1,0.4-0.2,0.7-0.4,1.1c-0.2,0.4-0.5,0.9-0.7,1.3c-0.1,0.3-0.3,0.6-0.3,0.8
	c0,1.1,1.1,1.4,1.5,2.5c0.1,0.3,0,0.7,0.1,1c0.5,1.6,2.6,3.4,3.8,4.9c0.6,0.8-1,3.9-2.4,4.2c-0.9,0.2-2.1-0.5-3.1-0.5
	c-0.1,0.1-0.4,0.3-0.4,0.5c-0.1,0.3,0,2.1,0.1,2.4c0.2,0.6,0.5,1.3,0.7,1.9c0.2,0.5,0.3,1.1,0.4,1.6c0.1,0.7,0.2,1.4,0.2,2
	c0.1,0.9,0.1,1.8,0.1,2.7c0,0.6,0,1.1,0,1.7c0,0.4,0.1,0.8,0.2,1.2c0.1,0.6,0,1.3-0.1,2c0,0.5,0,0.9,0,1.4c-0.1,0.3-0.3,0.6-0.5,0.9
	c-0.1,0.4,0.1,0.9,0.2,1.4c0,0.5-0.2,1.1-0.4,1.6c-0.1,0.6-0.1,1.2-0.1,1.9c0,0.5-0.1,1-0.2,1.4c-0.2,0.5-0.6,0.9-1,1.3
	c-0.4,0.3-0.8,0.6-1.2,0.8c-0.3,0.2-0.6,0.4-0.9,0.6c-0.3,0.3-0.7,0.6-1,0.9c-0.3,0.2-0.6,0.5-0.8,0.7c-0.2,0.2-0.4,0.4-0.6,0.5
	c-0.2,0.1-0.3,0.3-0.5,0.4c-0.1,0.1-0.1,0.3-0.1,0.5c0,0.3,0.1,0.6,0.2,0.9c0.1,0.2,0.3,0.4,0.5,0.6c0.2,0.3,0.4,0.6,0.5,0.9
	c0.1,0.3,0,0.5,0,0.8c0,0.4,0.1,0.8,0.2,1.3c0.2,0.7,0.4,1.3,0.6,1.9c0.1,0.4,0.1,0.8,0.2,1.2c0.1,0.4,0.3,0.8,0.5,1.2
	c0.1,0.3,0.2,0.6,0.4,0.9c0.1,0.3,0.2,0.6,0.4,0.9c0.1,0.2,0.2,0.5,0.4,0.7c0,0.2,0,0.4,0,0.6c0,0.3,0.1,0.6,0.1,0.8
	c0.1,0.3,0.3,0.6,0.4,0.9c0.1,0.3,0.1,0.6,0.1,0.9c0.1,0.3,0.2,0.7,0.3,1c0.1,0.3,0.2,0.6,0.3,0.9c0.2,0.4,0.4,0.7,0.6,1.1
	c0.3,0.4,0.5,0.9,0.8,1.3c0.1,0.2,0.1,0.4,0.1,0.6c0.1,0.2,0.4,0.4,0.6,0.5c0.2,0.3,0.3,0.7,0.3,1.2c0.1,0.3,0.3,0.6,0.4,0.9
	c0,0.2,0.1,0.3,0.1,0.5c0.1,0.4,0.1,0.7,0.1,1.1c0,0.2-0.1,0.3-0.2,0.5c-0.2,0.2-0.6,0.1-1,0c-0.3-0.2-0.5-0.3-0.8-0.4
	c-0.4-0.1-0.7-0.3-1.1-0.5c-0.3-0.1-0.5-0.2-0.8-0.3c-0.3-0.1-0.6-0.3-0.9-0.5c-0.4-0.4-0.6-0.9-0.9-1.4c0-0.3,0-0.5,0-0.8
	c-0.1-0.3-0.3-0.5-0.6-0.8c-0.3-0.4-0.5-0.8-0.7-1.3c-0.1-0.2-0.1-0.5-0.1-0.7c-0.1-0.4-0.3-0.7-0.5-1c-0.2-0.3-0.4-0.6-0.7-0.8
	c-0.2-0.4-0.4-0.8-0.5-1.2c0-0.3,0-0.6,0-0.9c-0.1-0.5-0.5-0.8-0.9-1.2c-0.1-0.3-0.2-0.5-0.3-0.8c-0.1-0.4-0.3-0.7-0.5-1.1
	c-0.2-0.4-0.3-0.7-0.5-1.1c-0.2-0.3-0.4-0.5-0.7-0.8c-0.2-0.4-0.3-0.8-0.3-1.3c-0.1,0-0.1,0.5-0.2,1c-0.1,0.3-0.3,0.7-0.5,1
	c-0.2,0.3-0.3,0.5-0.5,0.8c-0.1,0.2-0.1,0.4-0.2,0.6c-0.1,0.4-0.1,0.8-0.1,1.1c0,0.2,0,0.4-0.1,0.6c-0.1,0.3-0.4,0.6-0.6,0.9
	c-0.2,0.3-0.3,0.6-0.5,0.9c-0.1,0.2-0.1,0.4-0.1,0.7c0,0.3,0,0.7,0,1c0,0.3,0,0.6,0,0.8c-0.1,0.2-0.2,0.4-0.4,0.6
	c-0.1,0.3-0.1,0.7,0,1.1c0,0.3,0.2,0.7,0.3,1c0.1,0.3,0.1,0.6,0.1,0.9c0,0.3,0.1,0.6,0.1,0.9c0,0.2-0.1,0.4-0.1,0.7
	c-0.1,0.3-0.3,0.4-0.6,0.6c-0.2,0.1-0.5,0-0.8-0.1c-0.4-0.1-0.6-0.5-0.9-0.8c-0.2-0.2-0.5-0.3-0.7-0.4c-0.2-0.1-0.4-0.2-0.5-0.3
	C84,116.4,83.6,116.2,83.8,116.1L83.8,116.1z"/>
<path class="st1" d="M137.1,102.1c-0.7,1-0.7,1.1-0.8,1.3c-0.1,0.2-0.1,0.4-0.1,0.7c0,0.2,0,0.5,0,0.7c0,0.2,0.1,0.4,0.2,0.6
	c0.1,0.2,0.1,0.4,0.2,0.5c0.1,0.3,0,0.6,0,0.8c0,0.3,0,0.5,0,0.8c0,0.2-0.1,0.4-0.1,0.6c-0.1,0.3-0.3,0.5-0.5,0.7
	c-0.2,0.3-0.3,0.5-0.5,0.8c-0.1,0.3-0.3,0.6-0.4,0.9c-0.2,0.4-0.4,0.8-0.6,1.2c-0.2,0.4-0.4,0.8-0.6,1.1c-0.2,0.3-0.3,0.6-0.5,0.9
	c-0.2,0.4-0.4,0.7-0.6,1.1c-0.1,0.2-0.3,0.3-0.5,0.5c-0.1,0.2,0,0.5,0,0.7c0,0.3-0.1,0.6-0.2,0.9c-0.2,0.2-0.4,0.4-0.6,0.6
	c-0.1,0.2-0.4,0.4-0.6,0.6c-0.3,0.1-0.5,0.2-0.7,0.2c-0.1,0.1-0.3,0.1-0.5,0.2c-0.4,0.1-0.6,0-0.9,0c-0.1,0-0.3,0-0.4,0
	c-0.2-0.1-0.4-0.2-0.5-0.4c0.1-0.1,0.1-0.3,0.2-0.4c0-0.1-0.3,0.1-0.5,0.3c-0.2,0.1-0.4,0.2-0.5,0.2c-0.1,0.1-0.4,0.2-0.6,0.3
	c-0.4,0.1-0.7,0.1-1.1,0.1c-0.1,0-0.4,0-0.6,0c-0.3-0.1-0.4-0.2-0.6-0.3c0-0.1,0-0.4,0.1-0.6c0.1-0.2,0.3-0.4,0.5-0.6
	c0.1-0.2,0.2-0.5,0.3-0.7c0.2-0.3,0.5-0.5,0.7-0.7c0.2-0.2,0.4-0.4,0.6-0.6c0.2-0.2,0.3-0.5,0.5-0.7c0.2-0.3,0.3-0.6,0.4-0.9
	c0.1-0.3,0.2-0.5,0.2-0.8c0.1-0.3,0.2-0.5,0.3-0.7c0.2-0.6,0.2-1.2,0.2-1.8c0-0.4,0-0.8,0-1.2c-0.1-0.1-0.2-0.3-0.4-0.4
	c-0.1-0.1-0.1-0.3-0.1-0.4c0-0.2,0-0.3,0.1-0.5c-0.1-0.1-0.2-0.1-0.3-0.1c-0.1,0-0.1-0.1-0.2-0.2c-0.1-0.1,0-0.3,0.1-0.5
	c0-0.1,0-0.3,0-0.4c-0.1-0.1-0.2-0.2-0.4-0.3c0-0.1,0-0.3,0-0.4c0-0.2-0.2-0.3-0.3-0.5c0-0.1,0-0.2,0-0.3c0-0.2-0.2-0.3-0.4-0.4
	c0-0.1,0-0.3,0-0.4c0-0.1-0.2-0.2-0.3-0.3c-0.1-0.1,0-0.3,0.1-0.5c0-0.1-0.1-0.3-0.2-0.4c-0.2-0.1-0.4-0.1-0.7,0c-0.1,0-0.2,0-0.3,0
	c-0.2,0-0.3-0.3-0.3-0.5c0-0.1-0.2,0-0.4,0c-0.4,0-0.7,0.2-0.9,0.4c-0.2,0.3-0.4,0.7-0.5,1.1c-0.2,0.2-0.4,0.5-0.6,0.7
	c0,0.2,0,0.4,0,0.7c-0.1,0.2-0.3,0.4-0.4,0.6c0,0.2,0,0.4,0,0.6c0,0.2,0,0.4-0.1,0.7c0,0.1-0.1,0.3-0.2,0.4c-0.1,0.2-0.1,0.5,0,0.7
	c0,0.3,0,0.6,0,0.9c0,0.2,0,0.5,0,0.7c-0.1,0.2-0.2,0.3-0.4,0.4c-0.2,0.2-0.2,0.5-0.1,0.7c0.1,0.2,0.1,0.5,0.1,0.7
	c0,0.3,0,0.5,0,0.7c0,0.3-0.1,0.5-0.1,0.8c-0.1,0.3-0.1,0.5-0.1,0.8c0,0.3,0.1,0.6,0.1,0.9c0,0.2,0,0.4-0.1,0.7
	c-0.1,0.3-0.3,0.5-0.6,0.8c-0.1,0.2-0.2,0.5-0.3,0.8c-0.1,0.2-0.4,0.4-0.7,0.6c-0.2,0.2-0.4,0.5-0.6,0.8c-0.2,0.2-0.4,0.3-0.6,0.4
	c-0.2,0.1-0.4,0.1-0.7,0.1c-0.2,0-0.5-0.2-0.7-0.3v-6.6c0,0.1,0,0.2,0,0.3c0,0.1,0,0.3,0,0.4c0,0.3,0,0.5,0,0.5
	c0-0.2,0.1-0.3,0.1-0.5c0-0.1,0-0.3,0.1-0.4c0-0.1,0.1-0.2,0.1-0.2c0-0.1,0-0.3,0-0.4c0.1-0.1,0.2-0.2,0.2-0.3c0-0.1,0-0.2,0-0.3
	c0-0.1,0-0.2,0-0.3c0-0.1,0.1-0.3,0.1-0.4c0-0.1-0.1-0.2-0.1-0.3c-0.1-0.1-0.1-0.1-0.2-0.2c0-0.1,0-0.1,0-0.2c0-0.1,0-0.2-0.1-0.2
	c0-0.1,0-0.2,0-0.3c0-0.1,0-0.3,0-0.4c0-0.1,0-0.2,0-0.3c0-0.1,0-0.3,0.1-0.4c0-0.1,0-0.2,0.1-0.4c0,0,0,0,0,0
	c-0.1,0-0.1,0.2-0.2,0.3c-0.1,0.1-0.1,0.2-0.2,0.2v-40c0.1,0.1,0.2,0.1,0.3,0.2c0.2,0.2,0.5,0.4,0.7,0.6c0.1,0.2,0.2,0.4,0.3,0.6
	c0.1,0.3,0.1,0.7,0.1,1.1c0,0.3,0,0.6,0,0.9c0,0.3,0,0.5,0,0.8c0,0.4,0.2,0.7,0.4,1.1c0.2,0.4,0.5,0.7,0.7,1.1
	c0.3,0.5,0.5,1,0.7,1.5c0.2,0.5,0.4,1,0.6,1.5c0.2,0.5,0.4,0.9,0.6,1.4c0.1,0.4,0.2,0.9,0.3,1.4c0.1,0.6,0,1.1,0,1.7
	c0,0.4,0,0.8,0,1.2c0,0.2,0,0.5,0,0.7c0,0.2,0.1,0.4,0.1,0.6c0,0.2,0,0.5,0,0.7c0,0.2,0,0.5,0,0.7c0.1,0.3,0.3,0.5,0.5,0.7
	c0.2,0.3,0.6,0.5,0.9,0.6c0.5,0.3,1.2,0.3,1.8,0.3c0.5,0.1,1,0.1,1.6,0.2c0.4,0,0.7,0,1.1,0c0.5,0,1,0.1,1.5,0.2
	c0.3,0,0.7,0.1,1,0.2c0.5,0.1,1,0.1,1.4,0.1c0.6,0,1.2,0,1.8,0c0.5,0,1,0,1.4,0c0.5-0.1,0.9-0.4,1.3-0.6c0.3-0.1,0.6-0.3,0.9-0.5
	c0.3-0.1,0.6-0.1,0.9-0.2c0.3,0,0.6,0,0.9,0c0.3,0,0.7,0.2,1,0.3c0.3,0.2,0.4,0.6,0.6,1c0.1,0.2,0.2,0.4,0.3,0.6
	c0.1,0.3,0.2,0.6,0.3,0.8c0.1,0.5,0.2,1,0.2,1.6c0,0.3,0,0.5-0.1,0.8c-0.1,0.3-0.3,0.5-0.6,0.7c-0.2,0.2-0.5,0.5-0.7,0.7
	c-0.3,0.3-0.5,0.6-0.7,0.9c-0.1,0.2-0.2,0.4-0.3,0.7c-0.1,0.3,0,0.5,0,0.8c0,0.3,0.1,0.6,0.1,0.8c0.1,0.4,0.1,0.8,0.2,1.2
	c0,0.4-0.1,0.8-0.2,1.2c-0.1,0.5-0.4,0.9-0.6,1.4C137.5,101.2,137.3,101.7,137.1,102.1z M116.3,118.9c0,0-0.1-0.1-0.1-0.1
	c-0.2-0.1-0.3-0.3-0.4-0.5c0-0.2,0-0.4,0-0.7c0-0.3,0.1-0.7,0.1-1c0-0.1,0-0.2,0-0.3c0-0.2-0.2,0.4-0.5,1c-0.2,0.2-0.4,0.4-0.5,0.6
	c-0.2,0.3-0.5,0.5-0.7,0.8c-0.3,0.2-0.6,0.3-0.9,0.5c-0.2,0-0.4-0.1-0.6-0.2c-0.4-0.2-0.3-0.8-0.3-1.3c0.1-0.3,0.1-0.6,0.1-0.9
	c0-0.5,0-0.9,0-1.4c0-0.4-0.1-0.8-0.1-1.2c-0.2-0.4-0.3-0.8-0.4-1.2c0-0.5-0.2-1-0.4-1.5c-0.3-0.5-0.5-1-0.7-1.5c0-0.3,0-0.6,0-0.9
	c-0.1-0.3,0-0.7,0.2-1c0.1-0.3,0.3-0.5,0.5-0.8c0.2-0.3,0.4-0.6,0.6-0.9c0.2-0.2,0.4-0.5,0.6-0.7c0.2-0.2,0.3-0.5,0.5-0.7
	c0.2-0.3,0.4-0.6,0.7-0.8c0.1-0.3,0.1-0.6,0.2-0.9c0-0.3-0.1-0.5-0.2-0.8c-0.1-0.3-0.3-0.6-0.5-0.9c-0.3-0.4-0.6-0.8-0.9-1.3
	c-0.2-0.2-0.4-0.4-0.6-0.6c-0.2-0.3-0.4-0.6-0.6-0.9c-0.2-0.3-0.4-0.5-0.5-0.8c-0.2-0.2-0.4-0.3-0.6-0.4c-0.2-0.2-0.4-0.5-0.6-0.8
	c-0.1-0.4-0.1-0.8,0-1.2c0-0.4,0.1-0.7,0.1-1.1c0-0.5,0-1,0-1.6c0-0.5,0-0.9,0-1.4c0-0.4,0.1-0.9,0.2-1.3c0.1-0.3,0.2-0.6,0.3-0.9
	c0.1-0.4,0.2-0.9,0.3-1.4c0.1-0.6,0.2-1.2,0.3-1.8c0.1-0.5,0.1-1,0.1-1.5c0.1-0.3,0.2-0.7,0.3-1c0.1-0.2,0.3-0.4,0.5-0.6
	c0.1-0.2,0.1-0.4,0.2-0.7c0-0.2-0.1-0.3-0.3-0.5c-0.1-0.1-0.2-0.2-0.3-0.2c-0.1,0-0.3-0.1-0.4-0.1c-0.3,0-0.6,0.2-0.9,0.3
	c-0.3,0.1-0.6,0.1-1,0.2c-0.3,0-0.6,0-0.9-0.1c-0.1,0-0.2-0.1-0.3-0.2c-0.2-0.1-0.2-0.3-0.3-0.5c0-0.2-0.1-0.4-0.2-0.6
	c-0.2-0.1-0.3-0.2-0.5-0.4c0,0,0-0.1,0-0.1v0c0-0.2,0.1-0.4,0.2-0.7c0.1-0.3,0.2-0.5,0.3-0.7c0.2-0.4,0.4-0.9,0.6-1.3
	c0.2-0.5,0.5-0.9,0.7-1.4c0.1-0.2,0.1-0.5,0.2-0.7c0-0.2,0.1-0.5,0.1-0.7c0.1-0.1,0.2-0.2,0.4-0.3c0.1-0.1,0.3-0.1,0.5-0.2
	c0.2-0.2,0.3-0.5,0.4-0.7c0-0.3-0.2-0.6-0.4-0.9c-0.2-0.4-0.5-0.7-0.7-1.1c-0.2-0.3-0.4-0.5-0.5-0.8c-0.1-0.3-0.2-0.5-0.3-0.8
	c0-0.2,0-0.4,0-0.6c0.1-0.1,0.2-0.2,0.4-0.3c0.2-0.1,0.4,0,0.6,0c0.3,0,0.5,0.1,0.8,0.2c0.3,0.1,0.5,0.4,0.7,0.6
	c0.3,0.2,0.7,0.4,1,0.5c0.3,0.1,0.6,0.1,1,0.1c0.2,0,0.4-0.1,0.6-0.3c0.2-0.2,0.2-0.5,0.2-0.8c0.1-0.3,0.1-0.6,0.1-0.9
	c0.1-0.3,0.1-0.6,0.2-0.9c0.1-0.1,0.3-0.2,0.6-0.2c0.2,0,0.5,0.1,0.7,0.2c0.2,0.1,0.5,0.3,0.7,0.4c0.1,0.1,0.3,0.2,0.4,0.3v40
	c0,0,0,0,0,0c0,0.1-0.1,0.2-0.1,0.2c-0.1,0.1-0.2,0.2-0.3,0.3c0,0.1,0,0.2,0,0.2c-0.1,0.1-0.2,0.2-0.2,0.4c0,0.1,0,0.3,0,0.4
	c0,0.1,0.1,0.3,0.2,0.4c0,0.1,0.1,0.2,0.1,0.4c0,0.1,0,0.2,0,0.3c0.1,0.1,0.1,0.2,0.2,0.3c0.1,0.1,0.2,0.2,0.2,0.3
	c0,0.1,0,0.2,0,0.4c0,0.1,0,0.1,0,0.2V118.9z"/>
</svg>
